<svg width="251" height="70" viewBox="0 0 251 70" fill="none" xmlns="http://www.w3.org/2000/svg">
<path d="M2 35C2 16.7746 16.7746 2 35 2H216C234.225 2 249 16.7746 249 35V35C249 53.2254 234.225 68 216 68H35C16.7746 68 2 53.2254 2 35V35Z" fill="#EBEAEF"/>
<path d="M35 66.5C33.6042 66.5 32.2304 66.4093 30.8839 66.2337L30.4959 69.2085C31.9707 69.4009 33.4741 69.5 35 69.5V66.5ZM22.9426 64.1104C20.3825 63.0487 17.9922 61.6589 15.8241 59.9928L13.9961 62.3716C16.3697 64.1955 18.9878 65.7181 21.7934 66.8815L22.9426 64.1104ZM10.0072 54.1759C8.34114 52.0078 6.95126 49.6175 5.88964 47.0574L3.11847 48.2066C4.28189 51.0122 5.80447 53.6303 7.62844 56.0039L10.0072 54.1759ZM3.76632 39.1161C3.59069 37.7696 3.5 36.3958 3.5 35H0.5C0.5 36.5259 0.59915 38.0293 0.791526 39.5041L3.76632 39.1161ZM3.5 35C3.5 33.6042 3.59069 32.2304 3.76632 30.8839L0.791526 30.4959C0.59915 31.9707 0.5 33.4741 0.5 35H3.5ZM5.88965 22.9426C6.95126 20.3825 8.34114 17.9922 10.0072 15.8241L7.62844 13.9961C5.80448 16.3697 4.2819 18.9878 3.11847 21.7934L5.88965 22.9426ZM15.8241 10.0072C17.9922 8.34114 20.3825 6.95126 22.9426 5.88965L21.7934 3.11847C18.9878 4.2819 16.3697 5.80447 13.9961 7.62844L15.8241 10.0072ZM30.8839 3.76632C32.2304 3.59069 33.6042 3.5 35 3.5V0.5C33.4741 0.5 31.9707 0.59915 30.4959 0.791526L30.8839 3.76632ZM35 3.5H40.0278V0.5H35V3.5ZM50.0833 3.5H60.1389V0.5H50.0833V3.5ZM70.1944 3.5H80.25V0.5H70.1944V3.5ZM90.3056 3.5H100.361V0.5H90.3056V3.5ZM110.417 3.5H120.472V0.5H110.417V3.5ZM130.528 3.5H140.583V0.5H130.528V3.5ZM150.639 3.5H160.694V0.5H150.639V3.5ZM170.75 3.5H180.806V0.5H170.75V3.5ZM190.861 3.5H200.917V0.5H190.861V3.5ZM210.972 3.5H216V0.5H210.972V3.5ZM216 3.5C217.396 3.5 218.77 3.59069 220.116 3.76632L220.504 0.791526C219.029 0.59915 217.526 0.5 216 0.5V3.5ZM228.057 5.88965C230.617 6.95126 233.008 8.34114 235.176 10.0072L237.004 7.62844C234.63 5.80448 232.012 4.2819 229.207 3.11847L228.057 5.88965ZM240.993 15.8241C242.659 17.9922 244.049 20.3825 245.11 22.9426L247.882 21.7934C246.718 18.9878 245.196 16.3697 243.372 13.9961L240.993 15.8241ZM247.234 30.8839C247.409 32.2304 247.5 33.6042 247.5 35H250.5C250.5 33.4741 250.401 31.9707 250.208 30.4959L247.234 30.8839ZM247.5 35C247.5 36.3958 247.409 37.7696 247.234 39.1161L250.208 39.5041C250.401 38.0293 250.5 36.5259 250.5 35H247.5ZM245.11 47.0574C244.049 49.6175 242.659 52.0078 240.993 54.1759L243.372 56.0039C245.196 53.6303 246.718 51.0122 247.882 48.2066L245.11 47.0574ZM235.176 59.9928C233.008 61.6589 230.617 63.0487 228.057 64.1104L229.207 66.8815C232.012 65.7181 234.63 64.1955 237.004 62.3716L235.176 59.9928ZM220.116 66.2337C218.77 66.4093 217.396 66.5 216 66.5V69.5C217.526 69.5 219.029 69.4009 220.504 69.2085L220.116 66.2337ZM216 66.5H210.972V69.5H216V66.5ZM200.917 66.5H190.861V69.5H200.917V66.5ZM180.806 66.5H170.75V69.5H180.806V66.5ZM160.694 66.5H150.639V69.5H160.694V66.5ZM140.583 66.5H130.528V69.5H140.583V66.5ZM120.472 66.5H110.417V69.5H120.472V66.5ZM100.361 66.5H90.3055V69.5H100.361V66.5ZM80.25 66.5H70.1944V69.5H80.25V66.5ZM60.1389 66.5H50.0833V69.5H60.1389V66.5ZM40.0278 66.5H35V69.5H40.0278V66.5Z" fill="#9B99AF"/>
</svg>
