<svg version="1.1" viewBox="0.0 0.0 165.7244094488189 163.48293963254594" fill="none" stroke="none" stroke-linecap="square" stroke-miterlimit="10" xmlns:xlink="http://www.w3.org/1999/xlink" xmlns="http://www.w3.org/2000/svg">
	<g>
		<path fill="#c9dfbe" fill-opacity="0.51" d="m4.6994753 81.55774l0 0c0 -42.121494 34.14622 -76.267715 76.267715 -76.267715l0 0c20.227455 0 39.62645 8.035326 53.929413 22.338297c14.3029785 14.302971 22.338303 33.701965 22.338303 53.929417l0 0c0 42.1215 -34.146217 76.267715 -76.267715 76.267715l0 0c-42.1215 0 -76.267715 -34.146217 -76.267715 -76.267715z" fill-rule="evenodd" />
		<path stroke="#78996b" stroke-width="3" stroke-linejoin="round" stroke-linecap="butt" stroke-dasharray="8.0,6.0" d="m4.6994753 81.55774l0 0c0 -42.121494 34.14622 -76.267715 76.267715 -76.267715l0 0c20.227455 0 39.62645 8.035326 53.929413 22.338297c14.3029785 14.302971 22.338303 33.701965 22.338303 53.929417l0 0c0 42.1215 -34.146217 76.267715 -76.267715 76.267715l0 0c-42.1215 0 -76.267715 -34.146217 -76.267715 -76.267715z" fill-rule="evenodd" />
	</g>
</svg>
