<svg width="126" height="79" viewBox="0 0 126 79" fill="none" xmlns="http://www.w3.org/2000/svg">
<path d="M3 39.5C3 19.3416 19.3416 3 39.5 3H86.5C106.658 3 123 19.3416 123 39.5V39.5C123 59.6584 106.658 76 86.5 76H39.5C19.3416 76 3 59.6584 3 39.5V39.5Z" fill="#EBEAEF"/>
<path d="M39.5 73C37.2589 73 35.072 72.7803 32.9588 72.3623L31.7944 78.2482C34.289 78.7417 36.8658 79 39.5 79V73ZM20.889 67.3592C17.2345 64.9126 14.0874 61.7655 11.6408 58.111L6.65496 61.4489C9.53791 65.7552 13.2448 69.4621 17.5511 72.345L20.889 67.3592ZM6.63771 46.0412C6.21966 43.928 6 41.7411 6 39.5H0C0 42.1342 0.258271 44.711 0.751778 47.2056L6.63771 46.0412ZM6 39.5C6 37.2588 6.21966 35.072 6.63771 32.9588L0.751779 31.7944C0.258271 34.289 0 36.8658 0 39.5H6ZM11.6408 20.889C14.0874 17.2345 17.2345 14.0874 20.889 11.6408L17.5511 6.65496C13.2448 9.53791 9.53791 13.2448 6.65496 17.5511L11.6408 20.889ZM32.9588 6.63771C35.072 6.21966 37.2589 6 39.5 6V0C36.8658 0 34.289 0.258271 31.7944 0.751778L32.9588 6.63771ZM39.5 6H45.375V0H39.5V6ZM57.125 6H68.875V0H57.125V6ZM80.625 6H86.5V0H80.625V6ZM86.5 6C88.7411 6 90.928 6.21966 93.0412 6.63771L94.2056 0.751779C91.711 0.258271 89.1342 0 86.5 0V6ZM105.111 11.6408C108.766 14.0874 111.913 17.2345 114.359 20.889L119.345 17.5511C116.462 13.2448 112.755 9.53791 108.449 6.65496L105.111 11.6408ZM119.362 32.9588C119.78 35.072 120 37.2589 120 39.5H126C126 36.8658 125.742 34.289 125.248 31.7944L119.362 32.9588ZM120 39.5C120 41.7412 119.78 43.928 119.362 46.0412L125.248 47.2056C125.742 44.711 126 42.1342 126 39.5H120ZM114.359 58.111C111.913 61.7655 108.766 64.9126 105.111 67.3592L108.449 72.345C112.755 69.4621 116.462 65.7552 119.345 61.4489L114.359 58.111ZM93.0412 72.3623C90.928 72.7803 88.7411 73 86.5 73V79C89.1342 79 91.711 78.7417 94.2056 78.2482L93.0412 72.3623ZM86.5 73H80.625V79H86.5V73ZM68.875 73H57.125V79H68.875V73ZM45.375 73H39.5V79H45.375V73Z" fill="#9B99AF"/>
</svg>
